<?xml version="1.0" encoding="UTF-8" standalone="no"?>
<!DOCTYPE svg PUBLIC "-//W3C//DTD SVG 1.0//EN" "http://www.w3.org/TR/2001/REC-SVG-20010904/DTD/svg10.dtd">
<svg version="1.0" xmlns="http://www.w3.org/2000/svg" width="175" height="421">
  <defs>
    <clipPath id="clip1">
      <path d="M5 398.72c0 22.7 34 22.7 34 0v-239c0 -22.7 -34 -22.7 -34 0z m0 -273c0 22.7 34 22.7 34 0v-98c0 -22.7 -34 -22.7 -34 0z"/>
    </clipPath>
    <style type="text/css">
      .locus { fill:url(#lograd); }
      .dark1 { fill:url(#d1grad); }
      .dark2 { fill:url(#d2grad); }
      .line  { stroke:#f00; stroke-width:1; }
      .text  { font-size: 12px; fill: #000; font-family: DejaVu Sans Condensed; }
    </style>
    <linearGradient id="lograd" x1="0%" y1="0%" x2="100%" y2="0%">
      <stop offset="0%" style="stop-color:#BBA"/>
      <stop offset="50%" style="stop-color:#FFE"/>
      <stop offset="100%" style="stop-color:#BBA"/>
    </linearGradient>
    <linearGradient id="d1grad" x1="0%" y1="0%" x2="100%" y2="0%">
      <stop offset="0%" style="stop-color:#877"/>
      <stop offset="50%" style="stop-color:#CBB"/>
      <stop offset="100%" style="stop-color:#877"/>
    </linearGradient>
    <linearGradient id="d2grad" x1="0%" y1="0%" x2="100%" y2="0%">
      <stop offset="0%" style="stop-color:#433"/>
      <stop offset="50%" style="stop-color:#988"/>
      <stop offset="100%" style="stop-color:#433"/>
    </linearGradient>
    <linearGradient id="bgrad" x1="0%" y1="0%" x2="100%" y2="0%">
      <stop offset="0%" style="stop-color:#000"/>
      <stop offset="50%" style="stop-color:#666"/>
      <stop offset="100%" style="stop-color:#000"/>
    </linearGradient>
  </defs>
  <g id="locii" clip-path="url(#clip1)">
    <rect x="0" y="0" width="40" height="773" fill="url(#bgrad)"/>
	  <path class="locus" d="M0 393.04h40v-5.03h-40z"/>
	  <path class="locus" d="M0 380.44h40v-3.77h-40z"/>
	  <path class="locus" d="M0 362.8h40v-6.29h-40z"/>
	  <path class="locus" d="M0 348.94h40v-11.34h-40z"/>
	  <path class="locus" d="M0 322.48h40v-7.56h-40z"/>
	  <path class="locus" d="M0 308.62h40v-12.59h-40z"/>
	  <path class="locus" d="M0 287.2h40v-7.55h-40z"/>
	  <path class="locus" d="M0 272.08h40v-5.03h-40z"/>
	  <path class="locus" d="M0 254.44h40v-10.07h-40z"/>
	  <path class="locus" d="M0 234.28h40v-10.07h-40z"/>
	  <path class="locus" d="M0 215.38h40v-8.81h-40z"/>
	  <path class="locus" d="M0 202.78h40v-8.81h-40z"/>
	  <path class="dark1" d="M0 186.4h40v-30.24h-40z"/>
	  <path class="dark2" d="M0 156.16h40v-17.63h-40z"/>
	  <path class="locus" d="M0 128.44h40v-7.56h-40z"/>
	  <path class="locus" d="M0 113.32h40v-5.04h-40z"/>
	  <path class="locus" d="M0 91.9h40v-11.33h-40z"/>
	  <path class="locus" d="M0 75.52h40v-10.07h-40z"/>
	  <path class="locus" d="M0 60.4h40v-7.56h-40z"/>
	  <path class="locus" d="M0 44.02h40v-11.34h-40z"/>
	  <path class="locus" d="M0 23.86h40v-7.56h-40z"/>
  </g>
<path class="line" d="M30 390.52h68"/>
<text class="text" x="102" y="395.52">9q34.2</text>
<path class="line" d="M30 378.55h15"/>
<text class="text" x="49" y="383.55">9q34.12</text>
<path class="line" d="M30 359.65h68"/>
<text class="text" x="102" y="364.65">9q33.3</text>
<path class="line" d="M30 343.27h15"/>
<text class="text" x="49" y="348.27">9q33.1</text>
<path class="line" d="M30 318.7h68"/>
<text class="text" x="102" y="323.7">9q31.3</text>
<path class="line" d="M30 302.32h15"/>
<text class="text" x="49" y="307.32">9q31.1</text>
<path class="line" d="M30 283.42h68"/>
<text class="text" x="102" y="288.42">9q22.32</text>
<path class="line" d="M30 269.56h15"/>
<text class="text" x="49" y="274.56">9q22.2</text>
<path class="line" d="M30 249.4h68"/>
<text class="text" x="102" y="254.4">9q21.33</text>
<path class="line" d="M30 229.24h15"/>
<text class="text" x="49" y="234.24">9q21.31</text>
<path class="line" d="M30 210.97h68"/>
<text class="text" x="102" y="215.97">9q21.13</text>
<path class="line" d="M30 198.37h15"/>
<text class="text" x="49" y="203.37">9q21.11</text>
<path class="line" d="M30 171.28h68"/>
<text class="text" x="102" y="176.28">9q12</text>
<path class="line" d="M30 124.66h15"/>
<text class="text" x="49" y="129.66">9p12</text>
<path class="line" d="M30 110.8h68"/>
<text class="text" x="102" y="115.8">9p13.2</text>
<path class="line" d="M30 86.23h15"/>
<text class="text" x="49" y="91.23">9p21.1</text>
<path class="line" d="M30 70.48h68"/>
<text class="text" x="102" y="75.48">9p21.3</text>
<path class="line" d="M30 56.62h15"/>
<text class="text" x="49" y="61.62">9p22.2</text>
<path class="line" d="M30 38.35h68"/>
<text class="text" x="102" y="43.35">9p23</text>
<path class="line" d="M30 20.08h15"/>
<text class="text" x="49" y="25.08">9p24.2</text>
 

</svg>